<?xml version="1.0" standalone="no"?><!DOCTYPE svg PUBLIC "-//W3C//DTD SVG 1.1//EN" "http://www.w3.org/Graphics/SVG/1.1/DTD/svg11.dtd"><svg t="1505409727955" class="icon" style="" viewBox="0 0 1024 1024" version="1.1" xmlns="http://www.w3.org/2000/svg" p-id="5635" xmlns:xlink="http://www.w3.org/1999/xlink" width="150" height="150"><defs><style type="text/css"></style></defs><path d="M617.24672 158.86336V0.83968L0.63488 131.39968v768.43008l616.59136 123.33056v-158.02368h315.47392V250.368H617.24672v-30.06464h345.96864v570.59328h61.44V158.86336H617.24672z m184.81152 152.94464h69.20192v491.88864H617.24672v-58.59328h181.02272v-61.44h-181.02272v-68.93568a122.4704 122.4704 0 0 0 61.5424 16.5888 123.0848 123.0848 0 0 0 119.48032-93.83936h-138.5472v-150.8352a122.30656 122.30656 0 0 0-42.47552 15.13472v-89.94816h184.81152zM555.6224 947.99872L62.2592 849.32608V181.3504l493.3632-104.46848v871.1168z" fill="#f14e27" p-id="5636"></path><path d="M689.31584 370.66752v138.30144h127.1808a150.9376 150.9376 0 0 0-127.1808-138.30144z" fill="#f14e27" p-id="5637"></path><path d="M298.61888 343.08096c22.3232-4.32128 42.06592-5.05856 58.81856-1.90464 17.32608 3.2768 31.82592 9.6256 43.2128 19.08736a83.94752 83.94752 0 0 1 25.53856 37.00736c5.38624 15.13472 8.11008 31.70304 8.11008 49.60256a160.5632 160.5632 0 0 1-8.35584 52.30592 102.52288 102.52288 0 0 1-25.78432 41.00096c-11.38688 11.03872-25.86624 19.2512-43.17184 24.73984-16.73216 5.28384-36.31104 7.18848-58.368 5.9392l-55.78752-3.15392v117.0432l-48.39424-9.37984V363.27424l104.18176-20.19328z m-55.78752 169.14432l49.07008-0.4096c22.81472-0.512 40.42752-5.65248 52.16256-15.60576 12.02176-10.17856 18.14528-25.04704 18.14528-44.31872 0-18.6368-6.12352-32.23552-18.14528-40.63232-11.73504-8.15104-29.06112-10.69056-51.38432-7.82336l-49.84832 6.38976v102.4z" fill="#f14e27" p-id="5638"></path></svg>